<mxfile host="app.diagrams.net" agent="Mozilla/5.0 (Windows NT 10.0; Win64; x64) AppleWebKit/537.36 (KHTML, like Gecko) Chrome/138.0.0.0 YaBrowser/25.8.0.0 Safari/537.36" version="28.2.3">
  <diagram name="Страница — 1" id="rFKy2qxcRWNcDenHxV3F">
    <mxGraphModel dx="1213" dy="668" grid="1" gridSize="10" guides="1" tooltips="1" connect="1" arrows="1" fold="1" page="1" pageScale="1" pageWidth="827" pageHeight="1169" math="0" shadow="0">
      <root>
        <mxCell id="0" />
        <mxCell id="1" parent="0" />
        <mxCell id="M3HZHztgUzs7YWsetsD--8" value="" style="edgeStyle=orthogonalEdgeStyle;rounded=0;orthogonalLoop=1;jettySize=auto;html=1;" edge="1" parent="1" source="M3HZHztgUzs7YWsetsD--1" target="M3HZHztgUzs7YWsetsD--5">
          <mxGeometry relative="1" as="geometry" />
        </mxCell>
        <mxCell id="M3HZHztgUzs7YWsetsD--1" value="Начало" style="ellipse;whiteSpace=wrap;html=1;" vertex="1" parent="1">
          <mxGeometry x="300" y="360" width="120" height="80" as="geometry" />
        </mxCell>
        <mxCell id="M3HZHztgUzs7YWsetsD--10" value="" style="edgeStyle=orthogonalEdgeStyle;rounded=0;orthogonalLoop=1;jettySize=auto;html=1;" edge="1" parent="1" source="M3HZHztgUzs7YWsetsD--4" target="M3HZHztgUzs7YWsetsD--7">
          <mxGeometry relative="1" as="geometry" />
        </mxCell>
        <mxCell id="M3HZHztgUzs7YWsetsD--4" value="cost = B * x * WIDTH" style="rounded=0;whiteSpace=wrap;html=1;" vertex="1" parent="1">
          <mxGeometry x="250" y="555" width="220" height="60" as="geometry" />
        </mxCell>
        <mxCell id="M3HZHztgUzs7YWsetsD--9" value="" style="edgeStyle=orthogonalEdgeStyle;rounded=0;orthogonalLoop=1;jettySize=auto;html=1;" edge="1" parent="1" source="M3HZHztgUzs7YWsetsD--5" target="M3HZHztgUzs7YWsetsD--4">
          <mxGeometry relative="1" as="geometry" />
        </mxCell>
        <mxCell id="M3HZHztgUzs7YWsetsD--5" value="&amp;nbsp;B = 500.0;&lt;div&gt;x = 2.5;&lt;/div&gt;&lt;div&gt;WIDTH = 0.8;&lt;/div&gt;" style="shape=parallelogram;perimeter=parallelogramPerimeter;whiteSpace=wrap;html=1;fixedSize=1;" vertex="1" parent="1">
          <mxGeometry x="250" y="460" width="220" height="60" as="geometry" />
        </mxCell>
        <mxCell id="M3HZHztgUzs7YWsetsD--6" value="Конец" style="ellipse;whiteSpace=wrap;html=1;" vertex="1" parent="1">
          <mxGeometry x="300" y="740" width="120" height="80" as="geometry" />
        </mxCell>
        <mxCell id="M3HZHztgUzs7YWsetsD--11" value="" style="edgeStyle=orthogonalEdgeStyle;rounded=0;orthogonalLoop=1;jettySize=auto;html=1;" edge="1" parent="1" source="M3HZHztgUzs7YWsetsD--7" target="M3HZHztgUzs7YWsetsD--6">
          <mxGeometry relative="1" as="geometry" />
        </mxCell>
        <mxCell id="M3HZHztgUzs7YWsetsD--7" value="printf(&quot;Стоимость ткани: %.2f рублей\n&quot;, cost)" style="shape=parallelogram;perimeter=parallelogramPerimeter;whiteSpace=wrap;html=1;fixedSize=1;" vertex="1" parent="1">
          <mxGeometry x="250" y="650" width="220" height="60" as="geometry" />
        </mxCell>
      </root>
    </mxGraphModel>
  </diagram>
</mxfile>
